<svg width="30" height="36" viewBox="0 0 30 36" fill="none" xmlns="http://www.w3.org/2000/svg">
<path d="M11.8749 6.125C11.8749 5.2962 12.2042 4.50134 12.7902 3.91529C13.3763 3.32924 14.1711 3 14.9999 3C15.8287 3 16.6236 3.32924 17.2096 3.91529C17.7957 4.50134 18.1249 5.2962 18.1249 6.125C18.1249 6.9538 17.7957 7.74866 17.2096 8.33471C16.6236 8.92076 15.8287 9.25 14.9999 9.25C14.1711 9.25 13.3763 8.92076 12.7902 8.33471C12.2042 7.74866 11.8749 6.9538 11.8749 6.125ZM14.9999 0.500001C14.1515 0.500013 13.3142 0.691918 12.5505 1.06135C11.7868 1.43079 11.1165 1.96818 10.5899 2.6333C10.0633 3.29843 9.69396 4.07405 9.50953 4.90212C9.32509 5.73019 9.33035 6.58925 9.52491 7.415L5.49491 5.79C4.51711 5.3962 3.42339 5.40429 2.45152 5.81251C1.47965 6.22073 0.708212 6.99608 0.304909 7.97C0.105284 8.4523 0.00323262 8.96939 0.0046533 9.49137C0.00607399 10.0134 0.110939 10.5299 0.313187 11.0111C0.515434 11.4923 0.811053 11.9286 1.18296 12.2949C1.55486 12.6612 1.99567 12.9501 2.47991 13.145L7.49991 15.1725V21.1325L2.96741 29.6575C2.722 30.1188 2.56985 30.6239 2.51964 31.1439C2.46944 31.664 2.52215 32.1889 2.67479 32.6886C2.82743 33.1883 3.07699 33.653 3.40923 34.0562C3.74148 34.4595 4.14989 34.7933 4.61116 35.0388C5.54273 35.5344 6.63304 35.6396 7.64222 35.3314C8.6514 35.0231 9.49679 34.3266 9.99241 33.395L14.9999 23.975L20.0099 33.395C20.5052 34.3266 21.3503 35.0232 22.3592 35.3317C23.3682 35.6402 24.4583 35.5353 25.3899 35.04C26.3215 34.5447 27.0181 33.6996 27.3266 32.6907C27.6351 31.6817 27.5302 30.5916 27.0349 29.66L22.4999 21.13V15.1725L27.5199 13.145C28.0041 12.9501 28.445 12.6612 28.8169 12.2949C29.1888 11.9286 29.4844 11.4923 29.6866 11.0111C29.8889 10.5299 29.9937 10.0134 29.9952 9.49137C29.9966 8.96939 29.8945 8.4523 29.6949 7.97C29.2921 6.99563 28.5208 6.21971 27.5489 5.811C26.577 5.40229 25.483 5.39384 24.5049 5.7875L20.4774 7.415C20.672 6.58905 20.6772 5.72977 20.4927 4.90151C20.3081 4.07326 19.9385 3.29749 19.4116 2.63232C18.8847 1.96715 18.2142 1.42981 17.4501 1.06054C16.6861 0.691264 15.8485 0.499636 14.9999 0.500001ZM2.61741 8.9225C2.76867 8.55881 3.05693 8.26921 3.41991 8.11626C3.78289 7.9633 4.19147 7.95926 4.55741 8.105L13.1274 11.5675C14.3286 12.0527 15.6712 12.0527 16.8724 11.5675L25.4424 8.105C25.8083 7.95926 26.2169 7.9633 26.5799 8.11626C26.9429 8.26921 27.2311 8.55881 27.3824 8.9225C27.4565 9.09994 27.4945 9.29033 27.4943 9.48261C27.4941 9.67488 27.4556 9.8652 27.3812 10.0425C27.3068 10.2198 27.1978 10.3805 27.0607 10.5152C26.9235 10.65 26.761 10.7561 26.5824 10.8275L21.5624 12.8525C21.1 13.0396 20.7041 13.3607 20.4256 13.7746C20.1472 14.1885 19.9989 14.6762 19.9999 15.175V21.1325C19.9997 21.5422 20.1001 21.9457 20.2924 22.3075L24.8274 30.835C24.9914 31.179 25.0163 31.573 24.8971 31.935C24.7778 32.297 24.5235 32.5989 24.1871 32.7781C23.8507 32.9572 23.4582 32.9997 23.0913 32.8967C22.7244 32.7937 22.4114 32.5531 22.2174 32.225L17.2074 22.8C16.9945 22.3994 16.6765 22.0643 16.2876 21.8306C15.8987 21.5969 15.4536 21.4734 14.9999 21.4734C14.5462 21.4734 14.1011 21.5969 13.7122 21.8306C13.3233 22.0643 13.0054 22.3994 12.7924 22.8L7.78491 32.2175C7.6938 32.3889 7.56984 32.5406 7.42009 32.6641C7.27033 32.7876 7.09773 32.8803 6.91213 32.9371C6.72653 32.9938 6.53156 33.0135 6.33837 32.9949C6.14518 32.9763 5.95753 32.9199 5.78616 32.8288C5.61478 32.7376 5.46303 32.6137 5.33957 32.4639C5.2161 32.3142 5.12334 32.1416 5.06658 31.956C5.00982 31.7704 4.99017 31.5754 5.00876 31.3822C5.02735 31.189 5.08381 31.0014 5.17491 30.83L9.70741 22.305C9.89932 21.944 9.99976 21.5414 9.99991 21.1325V15.1725C9.9999 14.6745 9.85117 14.1879 9.57278 13.775C9.2944 13.3621 8.89905 13.0417 8.43741 12.855L3.41741 10.825C3.23887 10.7536 3.07629 10.6475 2.93916 10.5127C2.80202 10.378 2.69306 10.2173 2.61862 10.04C2.54417 9.8627 2.50572 9.67238 2.50552 9.48011C2.50531 9.28783 2.54334 9.09994 2.61741 8.9225Z" fill="#A729F5"/>
</svg>
